G04 #@! TF.FileFunction,Copper,L2,Bot,Signal*
%FSLAX46Y46*%
G04 Gerber Fmt 4.6, Leading zero omitted, Abs format (unit mm)*
G04 Created by KiCad (PCBNEW 4.0.1-3.201512221402+6198~38~ubuntu14.04.1-stable) date Sat 30 Apr 2016 09:50:25 AM EDT*
%MOMM*%
G01*
G04 APERTURE LIST*
%ADD10C,0.100000*%
%ADD11C,1.998980*%
%ADD12R,1.998980X1.998980*%
%ADD13R,2.032000X1.727200*%
%ADD14O,2.032000X1.727200*%
%ADD15R,2.235200X2.235200*%
%ADD16R,2.032000X2.032000*%
%ADD17O,2.032000X2.032000*%
%ADD18C,0.254000*%
G04 APERTURE END LIST*
D10*
D11*
X111997460Y-34840000D03*
D12*
X111997460Y-45000000D03*
D11*
X111002540Y-60160000D03*
D12*
X111002540Y-50000000D03*
D13*
X129000000Y-36000000D03*
D14*
X129000000Y-38540000D03*
X129000000Y-41080000D03*
X129000000Y-43620000D03*
D15*
X104000000Y-50000000D03*
X124000000Y-50000000D03*
X117000000Y-50000000D03*
X104000000Y-46000000D03*
D16*
X104000000Y-36000000D03*
D17*
X104000000Y-38540000D03*
D11*
X115000000Y-45000000D03*
X115000000Y-34840000D03*
D16*
X119000000Y-40000000D03*
D17*
X119000000Y-42540000D03*
D13*
X129000000Y-52000000D03*
D14*
X129000000Y-54540000D03*
X129000000Y-57080000D03*
X129000000Y-59620000D03*
D11*
X125000000Y-60000000D03*
X114840000Y-60000000D03*
X125000000Y-54000000D03*
X114840000Y-54000000D03*
X124000000Y-38500640D03*
X124000000Y-43501900D03*
D15*
X104000000Y-61000000D03*
D18*
G36*
X110363254Y-34513453D02*
X110362686Y-35163694D01*
X110610998Y-35764655D01*
X111070387Y-36224846D01*
X111670913Y-36474206D01*
X112321154Y-36474774D01*
X112922115Y-36226462D01*
X113382306Y-35767073D01*
X113498708Y-35486745D01*
X113613538Y-35764655D01*
X114072927Y-36224846D01*
X114673453Y-36474206D01*
X115323694Y-36474774D01*
X115924655Y-36226462D01*
X116384846Y-35767073D01*
X116634206Y-35166547D01*
X116634774Y-34516306D01*
X116473916Y-34127000D01*
X130873000Y-34127000D01*
X130873000Y-62790000D01*
X102310000Y-62790000D01*
X102310000Y-62395040D01*
X102344073Y-62477299D01*
X102522702Y-62655927D01*
X102756091Y-62752600D01*
X103714250Y-62752600D01*
X103873000Y-62593850D01*
X103873000Y-61127000D01*
X104127000Y-61127000D01*
X104127000Y-62593850D01*
X104285750Y-62752600D01*
X105243909Y-62752600D01*
X105477298Y-62655927D01*
X105655927Y-62477299D01*
X105752600Y-62243910D01*
X105752600Y-61285750D01*
X105593850Y-61127000D01*
X104127000Y-61127000D01*
X103873000Y-61127000D01*
X103853000Y-61127000D01*
X103853000Y-60873000D01*
X103873000Y-60873000D01*
X103873000Y-59406150D01*
X104127000Y-59406150D01*
X104127000Y-60873000D01*
X105593850Y-60873000D01*
X105752600Y-60714250D01*
X105752600Y-60483694D01*
X109367766Y-60483694D01*
X109616078Y-61084655D01*
X110075467Y-61544846D01*
X110675993Y-61794206D01*
X111326234Y-61794774D01*
X111927195Y-61546462D01*
X112387386Y-61087073D01*
X112636746Y-60486547D01*
X112636888Y-60323694D01*
X113205226Y-60323694D01*
X113453538Y-60924655D01*
X113912927Y-61384846D01*
X114513453Y-61634206D01*
X115163694Y-61634774D01*
X115764655Y-61386462D01*
X116224846Y-60927073D01*
X116474206Y-60326547D01*
X116474208Y-60323694D01*
X123365226Y-60323694D01*
X123613538Y-60924655D01*
X124072927Y-61384846D01*
X124673453Y-61634206D01*
X125323694Y-61634774D01*
X125924655Y-61386462D01*
X126384846Y-60927073D01*
X126634206Y-60326547D01*
X126634774Y-59676306D01*
X126386462Y-59075345D01*
X125927073Y-58615154D01*
X125326547Y-58365794D01*
X124676306Y-58365226D01*
X124075345Y-58613538D01*
X123615154Y-59072927D01*
X123365794Y-59673453D01*
X123365226Y-60323694D01*
X116474208Y-60323694D01*
X116474774Y-59676306D01*
X116226462Y-59075345D01*
X115767073Y-58615154D01*
X115166547Y-58365794D01*
X114516306Y-58365226D01*
X113915345Y-58613538D01*
X113455154Y-59072927D01*
X113205794Y-59673453D01*
X113205226Y-60323694D01*
X112636888Y-60323694D01*
X112637314Y-59836306D01*
X112389002Y-59235345D01*
X111929613Y-58775154D01*
X111329087Y-58525794D01*
X110678846Y-58525226D01*
X110077885Y-58773538D01*
X109617694Y-59232927D01*
X109368334Y-59833453D01*
X109367766Y-60483694D01*
X105752600Y-60483694D01*
X105752600Y-59756090D01*
X105655927Y-59522701D01*
X105477298Y-59344073D01*
X105243909Y-59247400D01*
X104285750Y-59247400D01*
X104127000Y-59406150D01*
X103873000Y-59406150D01*
X103714250Y-59247400D01*
X102756091Y-59247400D01*
X102522702Y-59344073D01*
X102344073Y-59522701D01*
X102310000Y-59604960D01*
X102310000Y-57080000D01*
X127316655Y-57080000D01*
X127430729Y-57653489D01*
X127755585Y-58139670D01*
X128070366Y-58350000D01*
X127755585Y-58560330D01*
X127430729Y-59046511D01*
X127316655Y-59620000D01*
X127430729Y-60193489D01*
X127755585Y-60679670D01*
X128241766Y-61004526D01*
X128815255Y-61118600D01*
X129184745Y-61118600D01*
X129758234Y-61004526D01*
X130244415Y-60679670D01*
X130569271Y-60193489D01*
X130683345Y-59620000D01*
X130569271Y-59046511D01*
X130244415Y-58560330D01*
X129929634Y-58350000D01*
X130244415Y-58139670D01*
X130569271Y-57653489D01*
X130683345Y-57080000D01*
X130569271Y-56506511D01*
X130244415Y-56020330D01*
X129934931Y-55813539D01*
X130350732Y-55442036D01*
X130604709Y-54914791D01*
X130607358Y-54899026D01*
X130486217Y-54667000D01*
X129127000Y-54667000D01*
X129127000Y-54687000D01*
X128873000Y-54687000D01*
X128873000Y-54667000D01*
X127513783Y-54667000D01*
X127392642Y-54899026D01*
X127395291Y-54914791D01*
X127649268Y-55442036D01*
X128065069Y-55813539D01*
X127755585Y-56020330D01*
X127430729Y-56506511D01*
X127316655Y-57080000D01*
X102310000Y-57080000D01*
X102310000Y-54323694D01*
X113205226Y-54323694D01*
X113453538Y-54924655D01*
X113912927Y-55384846D01*
X114513453Y-55634206D01*
X115163694Y-55634774D01*
X115764655Y-55386462D01*
X115999363Y-55152163D01*
X124027443Y-55152163D01*
X124126042Y-55418965D01*
X124735582Y-55645401D01*
X125385377Y-55621341D01*
X125873958Y-55418965D01*
X125972557Y-55152163D01*
X125000000Y-54179605D01*
X124027443Y-55152163D01*
X115999363Y-55152163D01*
X116224846Y-54927073D01*
X116474206Y-54326547D01*
X116474722Y-53735582D01*
X123354599Y-53735582D01*
X123378659Y-54385377D01*
X123581035Y-54873958D01*
X123847837Y-54972557D01*
X124820395Y-54000000D01*
X125179605Y-54000000D01*
X126152163Y-54972557D01*
X126418965Y-54873958D01*
X126645401Y-54264418D01*
X126621341Y-53614623D01*
X126418965Y-53126042D01*
X126152163Y-53027443D01*
X125179605Y-54000000D01*
X124820395Y-54000000D01*
X123847837Y-53027443D01*
X123581035Y-53126042D01*
X123354599Y-53735582D01*
X116474722Y-53735582D01*
X116474774Y-53676306D01*
X116226462Y-53075345D01*
X115999351Y-52847837D01*
X124027443Y-52847837D01*
X125000000Y-53820395D01*
X125972557Y-52847837D01*
X125873958Y-52581035D01*
X125264418Y-52354599D01*
X124614623Y-52378659D01*
X124126042Y-52581035D01*
X124027443Y-52847837D01*
X115999351Y-52847837D01*
X115767073Y-52615154D01*
X115166547Y-52365794D01*
X114516306Y-52365226D01*
X113915345Y-52613538D01*
X113455154Y-53072927D01*
X113205794Y-53673453D01*
X113205226Y-54323694D01*
X102310000Y-54323694D01*
X102310000Y-51400722D01*
X102418310Y-51569041D01*
X102630510Y-51714031D01*
X102882400Y-51765040D01*
X105117600Y-51765040D01*
X105352917Y-51720762D01*
X105569041Y-51581690D01*
X105714031Y-51369490D01*
X105765040Y-51117600D01*
X105765040Y-49000510D01*
X109355610Y-49000510D01*
X109355610Y-50999490D01*
X109399888Y-51234807D01*
X109538960Y-51450931D01*
X109751160Y-51595921D01*
X110003050Y-51646930D01*
X112002030Y-51646930D01*
X112237347Y-51602652D01*
X112453471Y-51463580D01*
X112598461Y-51251380D01*
X112649470Y-50999490D01*
X112649470Y-49000510D01*
X112627247Y-48882400D01*
X115234960Y-48882400D01*
X115234960Y-51117600D01*
X115279238Y-51352917D01*
X115418310Y-51569041D01*
X115630510Y-51714031D01*
X115882400Y-51765040D01*
X118117600Y-51765040D01*
X118352917Y-51720762D01*
X118569041Y-51581690D01*
X118714031Y-51369490D01*
X118765040Y-51117600D01*
X118765040Y-48882400D01*
X122234960Y-48882400D01*
X122234960Y-51117600D01*
X122279238Y-51352917D01*
X122418310Y-51569041D01*
X122630510Y-51714031D01*
X122882400Y-51765040D01*
X125117600Y-51765040D01*
X125352917Y-51720762D01*
X125569041Y-51581690D01*
X125714031Y-51369490D01*
X125761232Y-51136400D01*
X127336560Y-51136400D01*
X127336560Y-52863600D01*
X127380838Y-53098917D01*
X127519910Y-53315041D01*
X127732110Y-53460031D01*
X127826927Y-53479232D01*
X127649268Y-53637964D01*
X127395291Y-54165209D01*
X127392642Y-54180974D01*
X127513783Y-54413000D01*
X128873000Y-54413000D01*
X128873000Y-54393000D01*
X129127000Y-54393000D01*
X129127000Y-54413000D01*
X130486217Y-54413000D01*
X130607358Y-54180974D01*
X130604709Y-54165209D01*
X130350732Y-53637964D01*
X130175155Y-53481093D01*
X130251317Y-53466762D01*
X130467441Y-53327690D01*
X130612431Y-53115490D01*
X130663440Y-52863600D01*
X130663440Y-51136400D01*
X130619162Y-50901083D01*
X130480090Y-50684959D01*
X130267890Y-50539969D01*
X130016000Y-50488960D01*
X127984000Y-50488960D01*
X127748683Y-50533238D01*
X127532559Y-50672310D01*
X127387569Y-50884510D01*
X127336560Y-51136400D01*
X125761232Y-51136400D01*
X125765040Y-51117600D01*
X125765040Y-48882400D01*
X125720762Y-48647083D01*
X125581690Y-48430959D01*
X125369490Y-48285969D01*
X125117600Y-48234960D01*
X122882400Y-48234960D01*
X122647083Y-48279238D01*
X122430959Y-48418310D01*
X122285969Y-48630510D01*
X122234960Y-48882400D01*
X118765040Y-48882400D01*
X118720762Y-48647083D01*
X118581690Y-48430959D01*
X118369490Y-48285969D01*
X118117600Y-48234960D01*
X115882400Y-48234960D01*
X115647083Y-48279238D01*
X115430959Y-48418310D01*
X115285969Y-48630510D01*
X115234960Y-48882400D01*
X112627247Y-48882400D01*
X112605192Y-48765193D01*
X112466120Y-48549069D01*
X112253920Y-48404079D01*
X112002030Y-48353070D01*
X110003050Y-48353070D01*
X109767733Y-48397348D01*
X109551609Y-48536420D01*
X109406619Y-48748620D01*
X109355610Y-49000510D01*
X105765040Y-49000510D01*
X105765040Y-48882400D01*
X105720762Y-48647083D01*
X105581690Y-48430959D01*
X105369490Y-48285969D01*
X105117600Y-48234960D01*
X102882400Y-48234960D01*
X102647083Y-48279238D01*
X102430959Y-48418310D01*
X102310000Y-48595339D01*
X102310000Y-47400722D01*
X102418310Y-47569041D01*
X102630510Y-47714031D01*
X102882400Y-47765040D01*
X105117600Y-47765040D01*
X105352917Y-47720762D01*
X105569041Y-47581690D01*
X105714031Y-47369490D01*
X105765040Y-47117600D01*
X105765040Y-44882400D01*
X105720762Y-44647083D01*
X105581690Y-44430959D01*
X105369490Y-44285969D01*
X105117600Y-44234960D01*
X102882400Y-44234960D01*
X102647083Y-44279238D01*
X102430959Y-44418310D01*
X102310000Y-44595339D01*
X102310000Y-44000510D01*
X110350530Y-44000510D01*
X110350530Y-45999490D01*
X110394808Y-46234807D01*
X110533880Y-46450931D01*
X110746080Y-46595921D01*
X110997970Y-46646930D01*
X112996950Y-46646930D01*
X113232267Y-46602652D01*
X113448391Y-46463580D01*
X113593381Y-46251380D01*
X113613472Y-46152163D01*
X114027443Y-46152163D01*
X114126042Y-46418965D01*
X114735582Y-46645401D01*
X115385377Y-46621341D01*
X115873958Y-46418965D01*
X115972557Y-46152163D01*
X115000000Y-45179605D01*
X114027443Y-46152163D01*
X113613472Y-46152163D01*
X113644390Y-45999490D01*
X113644390Y-45897371D01*
X113847837Y-45972557D01*
X114820395Y-45000000D01*
X115179605Y-45000000D01*
X116152163Y-45972557D01*
X116418965Y-45873958D01*
X116645401Y-45264418D01*
X116621341Y-44614623D01*
X116418965Y-44126042D01*
X116152163Y-44027443D01*
X115179605Y-45000000D01*
X114820395Y-45000000D01*
X113847837Y-44027443D01*
X113644390Y-44102629D01*
X113644390Y-44000510D01*
X113615663Y-43847837D01*
X114027443Y-43847837D01*
X115000000Y-44820395D01*
X115972557Y-43847837D01*
X115873958Y-43581035D01*
X115264418Y-43354599D01*
X114614623Y-43378659D01*
X114126042Y-43581035D01*
X114027443Y-43847837D01*
X113615663Y-43847837D01*
X113600112Y-43765193D01*
X113461040Y-43549069D01*
X113248840Y-43404079D01*
X112996950Y-43353070D01*
X110997970Y-43353070D01*
X110762653Y-43397348D01*
X110546529Y-43536420D01*
X110401539Y-43748620D01*
X110350530Y-44000510D01*
X102310000Y-44000510D01*
X102310000Y-42922944D01*
X117394025Y-42922944D01*
X117593615Y-43404818D01*
X118031621Y-43877188D01*
X118617054Y-44145983D01*
X118873000Y-44027367D01*
X118873000Y-42667000D01*
X119127000Y-42667000D01*
X119127000Y-44027367D01*
X119382946Y-44145983D01*
X119968379Y-43877188D01*
X120016219Y-43825594D01*
X122365226Y-43825594D01*
X122613538Y-44426555D01*
X123072927Y-44886746D01*
X123673453Y-45136106D01*
X124323694Y-45136674D01*
X124924655Y-44888362D01*
X125384846Y-44428973D01*
X125571680Y-43979026D01*
X127392642Y-43979026D01*
X127395291Y-43994791D01*
X127649268Y-44522036D01*
X128085680Y-44911954D01*
X128638087Y-45105184D01*
X128873000Y-44960924D01*
X128873000Y-43747000D01*
X129127000Y-43747000D01*
X129127000Y-44960924D01*
X129361913Y-45105184D01*
X129914320Y-44911954D01*
X130350732Y-44522036D01*
X130604709Y-43994791D01*
X130607358Y-43979026D01*
X130486217Y-43747000D01*
X129127000Y-43747000D01*
X128873000Y-43747000D01*
X127513783Y-43747000D01*
X127392642Y-43979026D01*
X125571680Y-43979026D01*
X125634206Y-43828447D01*
X125634774Y-43178206D01*
X125386462Y-42577245D01*
X124927073Y-42117054D01*
X124326547Y-41867694D01*
X123676306Y-41867126D01*
X123075345Y-42115438D01*
X122615154Y-42574827D01*
X122365794Y-43175353D01*
X122365226Y-43825594D01*
X120016219Y-43825594D01*
X120406385Y-43404818D01*
X120605975Y-42922944D01*
X120486836Y-42667000D01*
X119127000Y-42667000D01*
X118873000Y-42667000D01*
X117513164Y-42667000D01*
X117394025Y-42922944D01*
X102310000Y-42922944D01*
X102310000Y-38540000D01*
X102316655Y-38540000D01*
X102442330Y-39171810D01*
X102800222Y-39707433D01*
X103335845Y-40065325D01*
X103967655Y-40191000D01*
X104032345Y-40191000D01*
X104664155Y-40065325D01*
X105199778Y-39707433D01*
X105557670Y-39171810D01*
X105595027Y-38984000D01*
X117336560Y-38984000D01*
X117336560Y-41016000D01*
X117380838Y-41251317D01*
X117519910Y-41467441D01*
X117682948Y-41578840D01*
X117593615Y-41675182D01*
X117394025Y-42157056D01*
X117513164Y-42413000D01*
X118873000Y-42413000D01*
X118873000Y-42393000D01*
X119127000Y-42393000D01*
X119127000Y-42413000D01*
X120486836Y-42413000D01*
X120605975Y-42157056D01*
X120406385Y-41675182D01*
X120315903Y-41577602D01*
X120467441Y-41480090D01*
X120612431Y-41267890D01*
X120663440Y-41016000D01*
X120663440Y-38984000D01*
X120633397Y-38824334D01*
X122365226Y-38824334D01*
X122613538Y-39425295D01*
X123072927Y-39885486D01*
X123673453Y-40134846D01*
X124323694Y-40135414D01*
X124924655Y-39887102D01*
X125384846Y-39427713D01*
X125634206Y-38827187D01*
X125634456Y-38540000D01*
X127316655Y-38540000D01*
X127430729Y-39113489D01*
X127755585Y-39599670D01*
X128070366Y-39810000D01*
X127755585Y-40020330D01*
X127430729Y-40506511D01*
X127316655Y-41080000D01*
X127430729Y-41653489D01*
X127755585Y-42139670D01*
X128065069Y-42346461D01*
X127649268Y-42717964D01*
X127395291Y-43245209D01*
X127392642Y-43260974D01*
X127513783Y-43493000D01*
X128873000Y-43493000D01*
X128873000Y-43473000D01*
X129127000Y-43473000D01*
X129127000Y-43493000D01*
X130486217Y-43493000D01*
X130607358Y-43260974D01*
X130604709Y-43245209D01*
X130350732Y-42717964D01*
X129934931Y-42346461D01*
X130244415Y-42139670D01*
X130569271Y-41653489D01*
X130683345Y-41080000D01*
X130569271Y-40506511D01*
X130244415Y-40020330D01*
X129929634Y-39810000D01*
X130244415Y-39599670D01*
X130569271Y-39113489D01*
X130683345Y-38540000D01*
X130569271Y-37966511D01*
X130244415Y-37480330D01*
X130230087Y-37470757D01*
X130251317Y-37466762D01*
X130467441Y-37327690D01*
X130612431Y-37115490D01*
X130663440Y-36863600D01*
X130663440Y-35136400D01*
X130619162Y-34901083D01*
X130480090Y-34684959D01*
X130267890Y-34539969D01*
X130016000Y-34488960D01*
X127984000Y-34488960D01*
X127748683Y-34533238D01*
X127532559Y-34672310D01*
X127387569Y-34884510D01*
X127336560Y-35136400D01*
X127336560Y-36863600D01*
X127380838Y-37098917D01*
X127519910Y-37315041D01*
X127732110Y-37460031D01*
X127773439Y-37468400D01*
X127755585Y-37480330D01*
X127430729Y-37966511D01*
X127316655Y-38540000D01*
X125634456Y-38540000D01*
X125634774Y-38176946D01*
X125386462Y-37575985D01*
X124927073Y-37115794D01*
X124326547Y-36866434D01*
X123676306Y-36865866D01*
X123075345Y-37114178D01*
X122615154Y-37573567D01*
X122365794Y-38174093D01*
X122365226Y-38824334D01*
X120633397Y-38824334D01*
X120619162Y-38748683D01*
X120480090Y-38532559D01*
X120267890Y-38387569D01*
X120016000Y-38336560D01*
X117984000Y-38336560D01*
X117748683Y-38380838D01*
X117532559Y-38519910D01*
X117387569Y-38732110D01*
X117336560Y-38984000D01*
X105595027Y-38984000D01*
X105683345Y-38540000D01*
X105557670Y-37908190D01*
X105330501Y-37568208D01*
X105467441Y-37480090D01*
X105612431Y-37267890D01*
X105663440Y-37016000D01*
X105663440Y-34984000D01*
X105619162Y-34748683D01*
X105480090Y-34532559D01*
X105267890Y-34387569D01*
X105016000Y-34336560D01*
X102984000Y-34336560D01*
X102748683Y-34380838D01*
X102532559Y-34519910D01*
X102387569Y-34732110D01*
X102336560Y-34984000D01*
X102336560Y-37016000D01*
X102380838Y-37251317D01*
X102519910Y-37467441D01*
X102668837Y-37569198D01*
X102442330Y-37908190D01*
X102316655Y-38540000D01*
X102310000Y-38540000D01*
X102310000Y-34127000D01*
X110523723Y-34127000D01*
X110363254Y-34513453D01*
X110363254Y-34513453D01*
G37*
X110363254Y-34513453D02*
X110362686Y-35163694D01*
X110610998Y-35764655D01*
X111070387Y-36224846D01*
X111670913Y-36474206D01*
X112321154Y-36474774D01*
X112922115Y-36226462D01*
X113382306Y-35767073D01*
X113498708Y-35486745D01*
X113613538Y-35764655D01*
X114072927Y-36224846D01*
X114673453Y-36474206D01*
X115323694Y-36474774D01*
X115924655Y-36226462D01*
X116384846Y-35767073D01*
X116634206Y-35166547D01*
X116634774Y-34516306D01*
X116473916Y-34127000D01*
X130873000Y-34127000D01*
X130873000Y-62790000D01*
X102310000Y-62790000D01*
X102310000Y-62395040D01*
X102344073Y-62477299D01*
X102522702Y-62655927D01*
X102756091Y-62752600D01*
X103714250Y-62752600D01*
X103873000Y-62593850D01*
X103873000Y-61127000D01*
X104127000Y-61127000D01*
X104127000Y-62593850D01*
X104285750Y-62752600D01*
X105243909Y-62752600D01*
X105477298Y-62655927D01*
X105655927Y-62477299D01*
X105752600Y-62243910D01*
X105752600Y-61285750D01*
X105593850Y-61127000D01*
X104127000Y-61127000D01*
X103873000Y-61127000D01*
X103853000Y-61127000D01*
X103853000Y-60873000D01*
X103873000Y-60873000D01*
X103873000Y-59406150D01*
X104127000Y-59406150D01*
X104127000Y-60873000D01*
X105593850Y-60873000D01*
X105752600Y-60714250D01*
X105752600Y-60483694D01*
X109367766Y-60483694D01*
X109616078Y-61084655D01*
X110075467Y-61544846D01*
X110675993Y-61794206D01*
X111326234Y-61794774D01*
X111927195Y-61546462D01*
X112387386Y-61087073D01*
X112636746Y-60486547D01*
X112636888Y-60323694D01*
X113205226Y-60323694D01*
X113453538Y-60924655D01*
X113912927Y-61384846D01*
X114513453Y-61634206D01*
X115163694Y-61634774D01*
X115764655Y-61386462D01*
X116224846Y-60927073D01*
X116474206Y-60326547D01*
X116474208Y-60323694D01*
X123365226Y-60323694D01*
X123613538Y-60924655D01*
X124072927Y-61384846D01*
X124673453Y-61634206D01*
X125323694Y-61634774D01*
X125924655Y-61386462D01*
X126384846Y-60927073D01*
X126634206Y-60326547D01*
X126634774Y-59676306D01*
X126386462Y-59075345D01*
X125927073Y-58615154D01*
X125326547Y-58365794D01*
X124676306Y-58365226D01*
X124075345Y-58613538D01*
X123615154Y-59072927D01*
X123365794Y-59673453D01*
X123365226Y-60323694D01*
X116474208Y-60323694D01*
X116474774Y-59676306D01*
X116226462Y-59075345D01*
X115767073Y-58615154D01*
X115166547Y-58365794D01*
X114516306Y-58365226D01*
X113915345Y-58613538D01*
X113455154Y-59072927D01*
X113205794Y-59673453D01*
X113205226Y-60323694D01*
X112636888Y-60323694D01*
X112637314Y-59836306D01*
X112389002Y-59235345D01*
X111929613Y-58775154D01*
X111329087Y-58525794D01*
X110678846Y-58525226D01*
X110077885Y-58773538D01*
X109617694Y-59232927D01*
X109368334Y-59833453D01*
X109367766Y-60483694D01*
X105752600Y-60483694D01*
X105752600Y-59756090D01*
X105655927Y-59522701D01*
X105477298Y-59344073D01*
X105243909Y-59247400D01*
X104285750Y-59247400D01*
X104127000Y-59406150D01*
X103873000Y-59406150D01*
X103714250Y-59247400D01*
X102756091Y-59247400D01*
X102522702Y-59344073D01*
X102344073Y-59522701D01*
X102310000Y-59604960D01*
X102310000Y-57080000D01*
X127316655Y-57080000D01*
X127430729Y-57653489D01*
X127755585Y-58139670D01*
X128070366Y-58350000D01*
X127755585Y-58560330D01*
X127430729Y-59046511D01*
X127316655Y-59620000D01*
X127430729Y-60193489D01*
X127755585Y-60679670D01*
X128241766Y-61004526D01*
X128815255Y-61118600D01*
X129184745Y-61118600D01*
X129758234Y-61004526D01*
X130244415Y-60679670D01*
X130569271Y-60193489D01*
X130683345Y-59620000D01*
X130569271Y-59046511D01*
X130244415Y-58560330D01*
X129929634Y-58350000D01*
X130244415Y-58139670D01*
X130569271Y-57653489D01*
X130683345Y-57080000D01*
X130569271Y-56506511D01*
X130244415Y-56020330D01*
X129934931Y-55813539D01*
X130350732Y-55442036D01*
X130604709Y-54914791D01*
X130607358Y-54899026D01*
X130486217Y-54667000D01*
X129127000Y-54667000D01*
X129127000Y-54687000D01*
X128873000Y-54687000D01*
X128873000Y-54667000D01*
X127513783Y-54667000D01*
X127392642Y-54899026D01*
X127395291Y-54914791D01*
X127649268Y-55442036D01*
X128065069Y-55813539D01*
X127755585Y-56020330D01*
X127430729Y-56506511D01*
X127316655Y-57080000D01*
X102310000Y-57080000D01*
X102310000Y-54323694D01*
X113205226Y-54323694D01*
X113453538Y-54924655D01*
X113912927Y-55384846D01*
X114513453Y-55634206D01*
X115163694Y-55634774D01*
X115764655Y-55386462D01*
X115999363Y-55152163D01*
X124027443Y-55152163D01*
X124126042Y-55418965D01*
X124735582Y-55645401D01*
X125385377Y-55621341D01*
X125873958Y-55418965D01*
X125972557Y-55152163D01*
X125000000Y-54179605D01*
X124027443Y-55152163D01*
X115999363Y-55152163D01*
X116224846Y-54927073D01*
X116474206Y-54326547D01*
X116474722Y-53735582D01*
X123354599Y-53735582D01*
X123378659Y-54385377D01*
X123581035Y-54873958D01*
X123847837Y-54972557D01*
X124820395Y-54000000D01*
X125179605Y-54000000D01*
X126152163Y-54972557D01*
X126418965Y-54873958D01*
X126645401Y-54264418D01*
X126621341Y-53614623D01*
X126418965Y-53126042D01*
X126152163Y-53027443D01*
X125179605Y-54000000D01*
X124820395Y-54000000D01*
X123847837Y-53027443D01*
X123581035Y-53126042D01*
X123354599Y-53735582D01*
X116474722Y-53735582D01*
X116474774Y-53676306D01*
X116226462Y-53075345D01*
X115999351Y-52847837D01*
X124027443Y-52847837D01*
X125000000Y-53820395D01*
X125972557Y-52847837D01*
X125873958Y-52581035D01*
X125264418Y-52354599D01*
X124614623Y-52378659D01*
X124126042Y-52581035D01*
X124027443Y-52847837D01*
X115999351Y-52847837D01*
X115767073Y-52615154D01*
X115166547Y-52365794D01*
X114516306Y-52365226D01*
X113915345Y-52613538D01*
X113455154Y-53072927D01*
X113205794Y-53673453D01*
X113205226Y-54323694D01*
X102310000Y-54323694D01*
X102310000Y-51400722D01*
X102418310Y-51569041D01*
X102630510Y-51714031D01*
X102882400Y-51765040D01*
X105117600Y-51765040D01*
X105352917Y-51720762D01*
X105569041Y-51581690D01*
X105714031Y-51369490D01*
X105765040Y-51117600D01*
X105765040Y-49000510D01*
X109355610Y-49000510D01*
X109355610Y-50999490D01*
X109399888Y-51234807D01*
X109538960Y-51450931D01*
X109751160Y-51595921D01*
X110003050Y-51646930D01*
X112002030Y-51646930D01*
X112237347Y-51602652D01*
X112453471Y-51463580D01*
X112598461Y-51251380D01*
X112649470Y-50999490D01*
X112649470Y-49000510D01*
X112627247Y-48882400D01*
X115234960Y-48882400D01*
X115234960Y-51117600D01*
X115279238Y-51352917D01*
X115418310Y-51569041D01*
X115630510Y-51714031D01*
X115882400Y-51765040D01*
X118117600Y-51765040D01*
X118352917Y-51720762D01*
X118569041Y-51581690D01*
X118714031Y-51369490D01*
X118765040Y-51117600D01*
X118765040Y-48882400D01*
X122234960Y-48882400D01*
X122234960Y-51117600D01*
X122279238Y-51352917D01*
X122418310Y-51569041D01*
X122630510Y-51714031D01*
X122882400Y-51765040D01*
X125117600Y-51765040D01*
X125352917Y-51720762D01*
X125569041Y-51581690D01*
X125714031Y-51369490D01*
X125761232Y-51136400D01*
X127336560Y-51136400D01*
X127336560Y-52863600D01*
X127380838Y-53098917D01*
X127519910Y-53315041D01*
X127732110Y-53460031D01*
X127826927Y-53479232D01*
X127649268Y-53637964D01*
X127395291Y-54165209D01*
X127392642Y-54180974D01*
X127513783Y-54413000D01*
X128873000Y-54413000D01*
X128873000Y-54393000D01*
X129127000Y-54393000D01*
X129127000Y-54413000D01*
X130486217Y-54413000D01*
X130607358Y-54180974D01*
X130604709Y-54165209D01*
X130350732Y-53637964D01*
X130175155Y-53481093D01*
X130251317Y-53466762D01*
X130467441Y-53327690D01*
X130612431Y-53115490D01*
X130663440Y-52863600D01*
X130663440Y-51136400D01*
X130619162Y-50901083D01*
X130480090Y-50684959D01*
X130267890Y-50539969D01*
X130016000Y-50488960D01*
X127984000Y-50488960D01*
X127748683Y-50533238D01*
X127532559Y-50672310D01*
X127387569Y-50884510D01*
X127336560Y-51136400D01*
X125761232Y-51136400D01*
X125765040Y-51117600D01*
X125765040Y-48882400D01*
X125720762Y-48647083D01*
X125581690Y-48430959D01*
X125369490Y-48285969D01*
X125117600Y-48234960D01*
X122882400Y-48234960D01*
X122647083Y-48279238D01*
X122430959Y-48418310D01*
X122285969Y-48630510D01*
X122234960Y-48882400D01*
X118765040Y-48882400D01*
X118720762Y-48647083D01*
X118581690Y-48430959D01*
X118369490Y-48285969D01*
X118117600Y-48234960D01*
X115882400Y-48234960D01*
X115647083Y-48279238D01*
X115430959Y-48418310D01*
X115285969Y-48630510D01*
X115234960Y-48882400D01*
X112627247Y-48882400D01*
X112605192Y-48765193D01*
X112466120Y-48549069D01*
X112253920Y-48404079D01*
X112002030Y-48353070D01*
X110003050Y-48353070D01*
X109767733Y-48397348D01*
X109551609Y-48536420D01*
X109406619Y-48748620D01*
X109355610Y-49000510D01*
X105765040Y-49000510D01*
X105765040Y-48882400D01*
X105720762Y-48647083D01*
X105581690Y-48430959D01*
X105369490Y-48285969D01*
X105117600Y-48234960D01*
X102882400Y-48234960D01*
X102647083Y-48279238D01*
X102430959Y-48418310D01*
X102310000Y-48595339D01*
X102310000Y-47400722D01*
X102418310Y-47569041D01*
X102630510Y-47714031D01*
X102882400Y-47765040D01*
X105117600Y-47765040D01*
X105352917Y-47720762D01*
X105569041Y-47581690D01*
X105714031Y-47369490D01*
X105765040Y-47117600D01*
X105765040Y-44882400D01*
X105720762Y-44647083D01*
X105581690Y-44430959D01*
X105369490Y-44285969D01*
X105117600Y-44234960D01*
X102882400Y-44234960D01*
X102647083Y-44279238D01*
X102430959Y-44418310D01*
X102310000Y-44595339D01*
X102310000Y-44000510D01*
X110350530Y-44000510D01*
X110350530Y-45999490D01*
X110394808Y-46234807D01*
X110533880Y-46450931D01*
X110746080Y-46595921D01*
X110997970Y-46646930D01*
X112996950Y-46646930D01*
X113232267Y-46602652D01*
X113448391Y-46463580D01*
X113593381Y-46251380D01*
X113613472Y-46152163D01*
X114027443Y-46152163D01*
X114126042Y-46418965D01*
X114735582Y-46645401D01*
X115385377Y-46621341D01*
X115873958Y-46418965D01*
X115972557Y-46152163D01*
X115000000Y-45179605D01*
X114027443Y-46152163D01*
X113613472Y-46152163D01*
X113644390Y-45999490D01*
X113644390Y-45897371D01*
X113847837Y-45972557D01*
X114820395Y-45000000D01*
X115179605Y-45000000D01*
X116152163Y-45972557D01*
X116418965Y-45873958D01*
X116645401Y-45264418D01*
X116621341Y-44614623D01*
X116418965Y-44126042D01*
X116152163Y-44027443D01*
X115179605Y-45000000D01*
X114820395Y-45000000D01*
X113847837Y-44027443D01*
X113644390Y-44102629D01*
X113644390Y-44000510D01*
X113615663Y-43847837D01*
X114027443Y-43847837D01*
X115000000Y-44820395D01*
X115972557Y-43847837D01*
X115873958Y-43581035D01*
X115264418Y-43354599D01*
X114614623Y-43378659D01*
X114126042Y-43581035D01*
X114027443Y-43847837D01*
X113615663Y-43847837D01*
X113600112Y-43765193D01*
X113461040Y-43549069D01*
X113248840Y-43404079D01*
X112996950Y-43353070D01*
X110997970Y-43353070D01*
X110762653Y-43397348D01*
X110546529Y-43536420D01*
X110401539Y-43748620D01*
X110350530Y-44000510D01*
X102310000Y-44000510D01*
X102310000Y-42922944D01*
X117394025Y-42922944D01*
X117593615Y-43404818D01*
X118031621Y-43877188D01*
X118617054Y-44145983D01*
X118873000Y-44027367D01*
X118873000Y-42667000D01*
X119127000Y-42667000D01*
X119127000Y-44027367D01*
X119382946Y-44145983D01*
X119968379Y-43877188D01*
X120016219Y-43825594D01*
X122365226Y-43825594D01*
X122613538Y-44426555D01*
X123072927Y-44886746D01*
X123673453Y-45136106D01*
X124323694Y-45136674D01*
X124924655Y-44888362D01*
X125384846Y-44428973D01*
X125571680Y-43979026D01*
X127392642Y-43979026D01*
X127395291Y-43994791D01*
X127649268Y-44522036D01*
X128085680Y-44911954D01*
X128638087Y-45105184D01*
X128873000Y-44960924D01*
X128873000Y-43747000D01*
X129127000Y-43747000D01*
X129127000Y-44960924D01*
X129361913Y-45105184D01*
X129914320Y-44911954D01*
X130350732Y-44522036D01*
X130604709Y-43994791D01*
X130607358Y-43979026D01*
X130486217Y-43747000D01*
X129127000Y-43747000D01*
X128873000Y-43747000D01*
X127513783Y-43747000D01*
X127392642Y-43979026D01*
X125571680Y-43979026D01*
X125634206Y-43828447D01*
X125634774Y-43178206D01*
X125386462Y-42577245D01*
X124927073Y-42117054D01*
X124326547Y-41867694D01*
X123676306Y-41867126D01*
X123075345Y-42115438D01*
X122615154Y-42574827D01*
X122365794Y-43175353D01*
X122365226Y-43825594D01*
X120016219Y-43825594D01*
X120406385Y-43404818D01*
X120605975Y-42922944D01*
X120486836Y-42667000D01*
X119127000Y-42667000D01*
X118873000Y-42667000D01*
X117513164Y-42667000D01*
X117394025Y-42922944D01*
X102310000Y-42922944D01*
X102310000Y-38540000D01*
X102316655Y-38540000D01*
X102442330Y-39171810D01*
X102800222Y-39707433D01*
X103335845Y-40065325D01*
X103967655Y-40191000D01*
X104032345Y-40191000D01*
X104664155Y-40065325D01*
X105199778Y-39707433D01*
X105557670Y-39171810D01*
X105595027Y-38984000D01*
X117336560Y-38984000D01*
X117336560Y-41016000D01*
X117380838Y-41251317D01*
X117519910Y-41467441D01*
X117682948Y-41578840D01*
X117593615Y-41675182D01*
X117394025Y-42157056D01*
X117513164Y-42413000D01*
X118873000Y-42413000D01*
X118873000Y-42393000D01*
X119127000Y-42393000D01*
X119127000Y-42413000D01*
X120486836Y-42413000D01*
X120605975Y-42157056D01*
X120406385Y-41675182D01*
X120315903Y-41577602D01*
X120467441Y-41480090D01*
X120612431Y-41267890D01*
X120663440Y-41016000D01*
X120663440Y-38984000D01*
X120633397Y-38824334D01*
X122365226Y-38824334D01*
X122613538Y-39425295D01*
X123072927Y-39885486D01*
X123673453Y-40134846D01*
X124323694Y-40135414D01*
X124924655Y-39887102D01*
X125384846Y-39427713D01*
X125634206Y-38827187D01*
X125634456Y-38540000D01*
X127316655Y-38540000D01*
X127430729Y-39113489D01*
X127755585Y-39599670D01*
X128070366Y-39810000D01*
X127755585Y-40020330D01*
X127430729Y-40506511D01*
X127316655Y-41080000D01*
X127430729Y-41653489D01*
X127755585Y-42139670D01*
X128065069Y-42346461D01*
X127649268Y-42717964D01*
X127395291Y-43245209D01*
X127392642Y-43260974D01*
X127513783Y-43493000D01*
X128873000Y-43493000D01*
X128873000Y-43473000D01*
X129127000Y-43473000D01*
X129127000Y-43493000D01*
X130486217Y-43493000D01*
X130607358Y-43260974D01*
X130604709Y-43245209D01*
X130350732Y-42717964D01*
X129934931Y-42346461D01*
X130244415Y-42139670D01*
X130569271Y-41653489D01*
X130683345Y-41080000D01*
X130569271Y-40506511D01*
X130244415Y-40020330D01*
X129929634Y-39810000D01*
X130244415Y-39599670D01*
X130569271Y-39113489D01*
X130683345Y-38540000D01*
X130569271Y-37966511D01*
X130244415Y-37480330D01*
X130230087Y-37470757D01*
X130251317Y-37466762D01*
X130467441Y-37327690D01*
X130612431Y-37115490D01*
X130663440Y-36863600D01*
X130663440Y-35136400D01*
X130619162Y-34901083D01*
X130480090Y-34684959D01*
X130267890Y-34539969D01*
X130016000Y-34488960D01*
X127984000Y-34488960D01*
X127748683Y-34533238D01*
X127532559Y-34672310D01*
X127387569Y-34884510D01*
X127336560Y-35136400D01*
X127336560Y-36863600D01*
X127380838Y-37098917D01*
X127519910Y-37315041D01*
X127732110Y-37460031D01*
X127773439Y-37468400D01*
X127755585Y-37480330D01*
X127430729Y-37966511D01*
X127316655Y-38540000D01*
X125634456Y-38540000D01*
X125634774Y-38176946D01*
X125386462Y-37575985D01*
X124927073Y-37115794D01*
X124326547Y-36866434D01*
X123676306Y-36865866D01*
X123075345Y-37114178D01*
X122615154Y-37573567D01*
X122365794Y-38174093D01*
X122365226Y-38824334D01*
X120633397Y-38824334D01*
X120619162Y-38748683D01*
X120480090Y-38532559D01*
X120267890Y-38387569D01*
X120016000Y-38336560D01*
X117984000Y-38336560D01*
X117748683Y-38380838D01*
X117532559Y-38519910D01*
X117387569Y-38732110D01*
X117336560Y-38984000D01*
X105595027Y-38984000D01*
X105683345Y-38540000D01*
X105557670Y-37908190D01*
X105330501Y-37568208D01*
X105467441Y-37480090D01*
X105612431Y-37267890D01*
X105663440Y-37016000D01*
X105663440Y-34984000D01*
X105619162Y-34748683D01*
X105480090Y-34532559D01*
X105267890Y-34387569D01*
X105016000Y-34336560D01*
X102984000Y-34336560D01*
X102748683Y-34380838D01*
X102532559Y-34519910D01*
X102387569Y-34732110D01*
X102336560Y-34984000D01*
X102336560Y-37016000D01*
X102380838Y-37251317D01*
X102519910Y-37467441D01*
X102668837Y-37569198D01*
X102442330Y-37908190D01*
X102316655Y-38540000D01*
X102310000Y-38540000D01*
X102310000Y-34127000D01*
X110523723Y-34127000D01*
X110363254Y-34513453D01*
M02*
