G04 #@! TF.FileFunction,Legend,Top*
%FSLAX46Y46*%
G04 Gerber Fmt 4.6, Leading zero omitted, Abs format (unit mm)*
G04 Created by KiCad (PCBNEW 4.0.1-3.201512221402+6198~38~ubuntu14.04.1-stable) date Sat 30 Apr 2016 09:50:25 AM EDT*
%MOMM*%
G01*
G04 APERTURE LIST*
%ADD10C,0.100000*%
%ADD11C,0.150000*%
G04 APERTURE END LIST*
D10*
D11*
X111997460Y-37380000D02*
X111997460Y-36364000D01*
X111997460Y-42206000D02*
X111997460Y-43476000D01*
X110727460Y-41952000D02*
X113267460Y-41952000D01*
X110727460Y-41698000D02*
X113267460Y-41698000D01*
X110727460Y-41444000D02*
X113267460Y-41444000D01*
X110727460Y-42206000D02*
X113267460Y-42206000D01*
X110727460Y-41190000D02*
X113267460Y-42460000D01*
X110727460Y-42460000D02*
X113267460Y-41190000D01*
X110727460Y-41190000D02*
X113267460Y-41190000D01*
X110727460Y-41825000D02*
X113267460Y-41825000D01*
X113267460Y-42460000D02*
X110727460Y-42460000D01*
X110727460Y-42460000D02*
X110727460Y-37380000D01*
X110727460Y-37380000D02*
X113267460Y-37380000D01*
X113267460Y-37380000D02*
X113267460Y-42460000D01*
X111002540Y-57620000D02*
X111002540Y-58636000D01*
X111002540Y-52794000D02*
X111002540Y-51524000D01*
X112272540Y-53048000D02*
X109732540Y-53048000D01*
X112272540Y-53302000D02*
X109732540Y-53302000D01*
X112272540Y-53556000D02*
X109732540Y-53556000D01*
X112272540Y-52794000D02*
X109732540Y-52794000D01*
X112272540Y-53810000D02*
X109732540Y-52540000D01*
X112272540Y-52540000D02*
X109732540Y-53810000D01*
X112272540Y-53810000D02*
X109732540Y-53810000D01*
X112272540Y-53175000D02*
X109732540Y-53175000D01*
X109732540Y-52540000D02*
X112272540Y-52540000D01*
X112272540Y-52540000D02*
X112272540Y-57620000D01*
X112272540Y-57620000D02*
X109732540Y-57620000D01*
X109732540Y-57620000D02*
X109732540Y-52540000D01*
X127730000Y-37270000D02*
X127730000Y-44890000D01*
X130270000Y-37270000D02*
X130270000Y-44890000D01*
X130550000Y-34450000D02*
X130550000Y-36000000D01*
X127730000Y-44890000D02*
X130270000Y-44890000D01*
X130270000Y-37270000D02*
X127730000Y-37270000D01*
X127450000Y-36000000D02*
X127450000Y-34450000D01*
X127450000Y-34450000D02*
X130550000Y-34450000D01*
X105550000Y-48450000D02*
X105550000Y-50000000D01*
X102450000Y-50000000D02*
X102450000Y-48450000D01*
X102450000Y-48450000D02*
X105550000Y-48450000D01*
X102730000Y-51270000D02*
X105270000Y-51270000D01*
X125550000Y-48450000D02*
X125550000Y-50000000D01*
X122450000Y-50000000D02*
X122450000Y-48450000D01*
X122450000Y-48450000D02*
X125550000Y-48450000D01*
X122730000Y-51270000D02*
X125270000Y-51270000D01*
X118550000Y-48450000D02*
X118550000Y-50000000D01*
X115450000Y-50000000D02*
X115450000Y-48450000D01*
X115450000Y-48450000D02*
X118550000Y-48450000D01*
X115730000Y-51270000D02*
X118270000Y-51270000D01*
X105550000Y-44450000D02*
X105550000Y-46000000D01*
X102450000Y-46000000D02*
X102450000Y-44450000D01*
X102450000Y-44450000D02*
X105550000Y-44450000D01*
X102730000Y-47270000D02*
X105270000Y-47270000D01*
X105270000Y-37270000D02*
X105270000Y-39810000D01*
X105550000Y-34450000D02*
X105550000Y-36000000D01*
X105270000Y-37270000D02*
X102730000Y-37270000D01*
X102450000Y-36000000D02*
X102450000Y-34450000D01*
X102450000Y-34450000D02*
X105550000Y-34450000D01*
X102730000Y-37270000D02*
X102730000Y-39810000D01*
X102730000Y-39810000D02*
X105270000Y-39810000D01*
X113730000Y-42460000D02*
X113730000Y-37380000D01*
X113730000Y-37380000D02*
X116270000Y-37380000D01*
X116270000Y-37380000D02*
X116270000Y-42460000D01*
X116270000Y-42460000D02*
X113730000Y-42460000D01*
X115000000Y-42460000D02*
X115000000Y-43730000D01*
X115000000Y-37380000D02*
X115000000Y-36110000D01*
X120270000Y-41270000D02*
X120270000Y-43810000D01*
X120550000Y-38450000D02*
X120550000Y-40000000D01*
X120270000Y-41270000D02*
X117730000Y-41270000D01*
X117450000Y-40000000D02*
X117450000Y-38450000D01*
X117450000Y-38450000D02*
X120550000Y-38450000D01*
X117730000Y-41270000D02*
X117730000Y-43810000D01*
X117730000Y-43810000D02*
X120270000Y-43810000D01*
X127730000Y-53270000D02*
X127730000Y-60890000D01*
X130270000Y-53270000D02*
X130270000Y-60890000D01*
X130550000Y-50450000D02*
X130550000Y-52000000D01*
X127730000Y-60890000D02*
X130270000Y-60890000D01*
X130270000Y-53270000D02*
X127730000Y-53270000D01*
X127450000Y-52000000D02*
X127450000Y-50450000D01*
X127450000Y-50450000D02*
X130550000Y-50450000D01*
X122460000Y-61270000D02*
X117380000Y-61270000D01*
X117380000Y-61270000D02*
X117380000Y-58730000D01*
X117380000Y-58730000D02*
X122460000Y-58730000D01*
X122460000Y-58730000D02*
X122460000Y-61270000D01*
X122460000Y-60000000D02*
X123730000Y-60000000D01*
X117380000Y-60000000D02*
X116110000Y-60000000D01*
X122460000Y-55270000D02*
X117380000Y-55270000D01*
X117380000Y-55270000D02*
X117380000Y-52730000D01*
X117380000Y-52730000D02*
X122460000Y-52730000D01*
X122460000Y-52730000D02*
X122460000Y-55270000D01*
X122460000Y-54000000D02*
X123730000Y-54000000D01*
X117380000Y-54000000D02*
X116110000Y-54000000D01*
X124000000Y-40900940D02*
X124000000Y-41901700D01*
X126499360Y-38500640D02*
G75*
G03X126499360Y-38500640I-2499360J0D01*
G01*
X105550000Y-59450000D02*
X105550000Y-61000000D01*
X102450000Y-61000000D02*
X102450000Y-59450000D01*
X102450000Y-59450000D02*
X105550000Y-59450000D01*
X102730000Y-62270000D02*
X105270000Y-62270000D01*
X112452381Y-40738095D02*
X111452381Y-40738095D01*
X111452381Y-40500000D01*
X111500000Y-40357142D01*
X111595238Y-40261904D01*
X111690476Y-40214285D01*
X111880952Y-40166666D01*
X112023810Y-40166666D01*
X112214286Y-40214285D01*
X112309524Y-40261904D01*
X112404762Y-40357142D01*
X112452381Y-40500000D01*
X112452381Y-40738095D01*
X112452381Y-39214285D02*
X112452381Y-39785714D01*
X112452381Y-39500000D02*
X111452381Y-39500000D01*
X111595238Y-39595238D01*
X111690476Y-39690476D01*
X111738095Y-39785714D01*
X108914921Y-56125435D02*
X107914921Y-56125435D01*
X107914921Y-55887340D01*
X107962540Y-55744482D01*
X108057778Y-55649244D01*
X108153016Y-55601625D01*
X108343492Y-55554006D01*
X108486350Y-55554006D01*
X108676826Y-55601625D01*
X108772064Y-55649244D01*
X108867302Y-55744482D01*
X108914921Y-55887340D01*
X108914921Y-56125435D01*
X108010159Y-55173054D02*
X107962540Y-55125435D01*
X107914921Y-55030197D01*
X107914921Y-54792101D01*
X107962540Y-54696863D01*
X108010159Y-54649244D01*
X108105397Y-54601625D01*
X108200635Y-54601625D01*
X108343492Y-54649244D01*
X108914921Y-55220673D01*
X108914921Y-54601625D01*
X126452381Y-42238095D02*
X125452381Y-42238095D01*
X125452381Y-42000000D01*
X125500000Y-41857142D01*
X125595238Y-41761904D01*
X125690476Y-41714285D01*
X125880952Y-41666666D01*
X126023810Y-41666666D01*
X126214286Y-41714285D01*
X126309524Y-41761904D01*
X126404762Y-41857142D01*
X126452381Y-42000000D01*
X126452381Y-42238095D01*
X126452381Y-41238095D02*
X125452381Y-41238095D01*
X125928571Y-41238095D02*
X125928571Y-40666666D01*
X126452381Y-40666666D02*
X125452381Y-40666666D01*
X126357143Y-39619047D02*
X126404762Y-39666666D01*
X126452381Y-39809523D01*
X126452381Y-39904761D01*
X126404762Y-40047619D01*
X126309524Y-40142857D01*
X126214286Y-40190476D01*
X126023810Y-40238095D01*
X125880952Y-40238095D01*
X125690476Y-40190476D01*
X125595238Y-40142857D01*
X125500000Y-40047619D01*
X125452381Y-39904761D01*
X125452381Y-39809523D01*
X125500000Y-39666666D01*
X125547619Y-39619047D01*
X126452381Y-38666666D02*
X126452381Y-39238095D01*
X126452381Y-38952381D02*
X125452381Y-38952381D01*
X125595238Y-39047619D01*
X125690476Y-39142857D01*
X125738095Y-39238095D01*
X126452381Y-37714285D02*
X126452381Y-38285714D01*
X126452381Y-38000000D02*
X125452381Y-38000000D01*
X125595238Y-38095238D01*
X125690476Y-38190476D01*
X125738095Y-38285714D01*
X102738095Y-53452381D02*
X102738095Y-52452381D01*
X103071429Y-53166667D01*
X103404762Y-52452381D01*
X103404762Y-53452381D01*
X104452381Y-53357143D02*
X104404762Y-53404762D01*
X104261905Y-53452381D01*
X104166667Y-53452381D01*
X104023809Y-53404762D01*
X103928571Y-53309524D01*
X103880952Y-53214286D01*
X103833333Y-53023810D01*
X103833333Y-52880952D01*
X103880952Y-52690476D01*
X103928571Y-52595238D01*
X104023809Y-52500000D01*
X104166667Y-52452381D01*
X104261905Y-52452381D01*
X104404762Y-52500000D01*
X104452381Y-52547619D01*
X104880952Y-52452381D02*
X104880952Y-53261905D01*
X104928571Y-53357143D01*
X104976190Y-53404762D01*
X105071428Y-53452381D01*
X105261905Y-53452381D01*
X105357143Y-53404762D01*
X105404762Y-53357143D01*
X105452381Y-53261905D01*
X105452381Y-52452381D01*
X105880952Y-53166667D02*
X106357143Y-53166667D01*
X105785714Y-53452381D02*
X106119047Y-52452381D01*
X106452381Y-53452381D01*
X106976190Y-52452381D02*
X107071429Y-52452381D01*
X107166667Y-52500000D01*
X107214286Y-52547619D01*
X107261905Y-52642857D01*
X107309524Y-52833333D01*
X107309524Y-53071429D01*
X107261905Y-53261905D01*
X107214286Y-53357143D01*
X107166667Y-53404762D01*
X107071429Y-53452381D01*
X106976190Y-53452381D01*
X106880952Y-53404762D01*
X106833333Y-53357143D01*
X106785714Y-53261905D01*
X106738095Y-53071429D01*
X106738095Y-52833333D01*
X106785714Y-52642857D01*
X106833333Y-52547619D01*
X106880952Y-52500000D01*
X106976190Y-52452381D01*
X121666667Y-47452381D02*
X121666667Y-46452381D01*
X122000001Y-47166667D01*
X122333334Y-46452381D01*
X122333334Y-47452381D01*
X123380953Y-47357143D02*
X123333334Y-47404762D01*
X123190477Y-47452381D01*
X123095239Y-47452381D01*
X122952381Y-47404762D01*
X122857143Y-47309524D01*
X122809524Y-47214286D01*
X122761905Y-47023810D01*
X122761905Y-46880952D01*
X122809524Y-46690476D01*
X122857143Y-46595238D01*
X122952381Y-46500000D01*
X123095239Y-46452381D01*
X123190477Y-46452381D01*
X123333334Y-46500000D01*
X123380953Y-46547619D01*
X123809524Y-46452381D02*
X123809524Y-47261905D01*
X123857143Y-47357143D01*
X123904762Y-47404762D01*
X124000000Y-47452381D01*
X124190477Y-47452381D01*
X124285715Y-47404762D01*
X124333334Y-47357143D01*
X124380953Y-47261905D01*
X124380953Y-46452381D01*
X124857143Y-47452381D02*
X124857143Y-46452381D01*
X125095238Y-46452381D01*
X125238096Y-46500000D01*
X125333334Y-46595238D01*
X125380953Y-46690476D01*
X125428572Y-46880952D01*
X125428572Y-47023810D01*
X125380953Y-47214286D01*
X125333334Y-47309524D01*
X125238096Y-47404762D01*
X125095238Y-47452381D01*
X124857143Y-47452381D01*
X125809524Y-46547619D02*
X125857143Y-46500000D01*
X125952381Y-46452381D01*
X126190477Y-46452381D01*
X126285715Y-46500000D01*
X126333334Y-46547619D01*
X126380953Y-46642857D01*
X126380953Y-46738095D01*
X126333334Y-46880952D01*
X125761905Y-47452381D01*
X126380953Y-47452381D01*
X114666667Y-47452381D02*
X114666667Y-46452381D01*
X115000001Y-47166667D01*
X115333334Y-46452381D01*
X115333334Y-47452381D01*
X116380953Y-47357143D02*
X116333334Y-47404762D01*
X116190477Y-47452381D01*
X116095239Y-47452381D01*
X115952381Y-47404762D01*
X115857143Y-47309524D01*
X115809524Y-47214286D01*
X115761905Y-47023810D01*
X115761905Y-46880952D01*
X115809524Y-46690476D01*
X115857143Y-46595238D01*
X115952381Y-46500000D01*
X116095239Y-46452381D01*
X116190477Y-46452381D01*
X116333334Y-46500000D01*
X116380953Y-46547619D01*
X116809524Y-46452381D02*
X116809524Y-47261905D01*
X116857143Y-47357143D01*
X116904762Y-47404762D01*
X117000000Y-47452381D01*
X117190477Y-47452381D01*
X117285715Y-47404762D01*
X117333334Y-47357143D01*
X117380953Y-47261905D01*
X117380953Y-46452381D01*
X117857143Y-47452381D02*
X117857143Y-46452381D01*
X118095238Y-46452381D01*
X118238096Y-46500000D01*
X118333334Y-46595238D01*
X118380953Y-46690476D01*
X118428572Y-46880952D01*
X118428572Y-47023810D01*
X118380953Y-47214286D01*
X118333334Y-47309524D01*
X118238096Y-47404762D01*
X118095238Y-47452381D01*
X117857143Y-47452381D01*
X119333334Y-46452381D02*
X118857143Y-46452381D01*
X118809524Y-46928571D01*
X118857143Y-46880952D01*
X118952381Y-46833333D01*
X119190477Y-46833333D01*
X119285715Y-46880952D01*
X119333334Y-46928571D01*
X119380953Y-47023810D01*
X119380953Y-47261905D01*
X119333334Y-47357143D01*
X119285715Y-47404762D01*
X119190477Y-47452381D01*
X118952381Y-47452381D01*
X118857143Y-47404762D01*
X118809524Y-47357143D01*
X101666667Y-43452381D02*
X101666667Y-42452381D01*
X102000001Y-43166667D01*
X102333334Y-42452381D01*
X102333334Y-43452381D01*
X103380953Y-43357143D02*
X103333334Y-43404762D01*
X103190477Y-43452381D01*
X103095239Y-43452381D01*
X102952381Y-43404762D01*
X102857143Y-43309524D01*
X102809524Y-43214286D01*
X102761905Y-43023810D01*
X102761905Y-42880952D01*
X102809524Y-42690476D01*
X102857143Y-42595238D01*
X102952381Y-42500000D01*
X103095239Y-42452381D01*
X103190477Y-42452381D01*
X103333334Y-42500000D01*
X103380953Y-42547619D01*
X103809524Y-42452381D02*
X103809524Y-43261905D01*
X103857143Y-43357143D01*
X103904762Y-43404762D01*
X104000000Y-43452381D01*
X104190477Y-43452381D01*
X104285715Y-43404762D01*
X104333334Y-43357143D01*
X104380953Y-43261905D01*
X104380953Y-42452381D01*
X104857143Y-43452381D02*
X104857143Y-42452381D01*
X105095238Y-42452381D01*
X105238096Y-42500000D01*
X105333334Y-42595238D01*
X105380953Y-42690476D01*
X105428572Y-42880952D01*
X105428572Y-43023810D01*
X105380953Y-43214286D01*
X105333334Y-43309524D01*
X105238096Y-43404762D01*
X105095238Y-43452381D01*
X104857143Y-43452381D01*
X106285715Y-42452381D02*
X106095238Y-42452381D01*
X106000000Y-42500000D01*
X105952381Y-42547619D01*
X105857143Y-42690476D01*
X105809524Y-42880952D01*
X105809524Y-43261905D01*
X105857143Y-43357143D01*
X105904762Y-43404762D01*
X106000000Y-43452381D01*
X106190477Y-43452381D01*
X106285715Y-43404762D01*
X106333334Y-43357143D01*
X106380953Y-43261905D01*
X106380953Y-43023810D01*
X106333334Y-42928571D01*
X106285715Y-42880952D01*
X106190477Y-42833333D01*
X106000000Y-42833333D01*
X105904762Y-42880952D01*
X105857143Y-42928571D01*
X105809524Y-43023810D01*
X106238095Y-37452381D02*
X106238095Y-36452381D01*
X106619048Y-36452381D01*
X106714286Y-36500000D01*
X106761905Y-36547619D01*
X106809524Y-36642857D01*
X106809524Y-36785714D01*
X106761905Y-36880952D01*
X106714286Y-36928571D01*
X106619048Y-36976190D01*
X106238095Y-36976190D01*
X107238095Y-37452381D02*
X107238095Y-36452381D01*
X107238095Y-36928571D02*
X107809524Y-36928571D01*
X107809524Y-37452381D02*
X107809524Y-36452381D01*
X108857143Y-37452381D02*
X108523809Y-36976190D01*
X108285714Y-37452381D02*
X108285714Y-36452381D01*
X108666667Y-36452381D01*
X108761905Y-36500000D01*
X108809524Y-36547619D01*
X108857143Y-36642857D01*
X108857143Y-36785714D01*
X108809524Y-36880952D01*
X108761905Y-36928571D01*
X108666667Y-36976190D01*
X108285714Y-36976190D01*
X109809524Y-37452381D02*
X109238095Y-37452381D01*
X109523809Y-37452381D02*
X109523809Y-36452381D01*
X109428571Y-36595238D01*
X109333333Y-36690476D01*
X109238095Y-36738095D01*
X115452381Y-42642857D02*
X114452381Y-42642857D01*
X114452381Y-42261904D01*
X114500000Y-42166666D01*
X114547619Y-42119047D01*
X114642857Y-42071428D01*
X114785714Y-42071428D01*
X114880952Y-42119047D01*
X114928571Y-42166666D01*
X114976190Y-42261904D01*
X114976190Y-42642857D01*
X115452381Y-41642857D02*
X114452381Y-41642857D01*
X114928571Y-41642857D02*
X114928571Y-41071428D01*
X115452381Y-41071428D02*
X114452381Y-41071428D01*
X115452381Y-40023809D02*
X114976190Y-40357143D01*
X115452381Y-40595238D02*
X114452381Y-40595238D01*
X114452381Y-40214285D01*
X114500000Y-40119047D01*
X114547619Y-40071428D01*
X114642857Y-40023809D01*
X114785714Y-40023809D01*
X114880952Y-40071428D01*
X114928571Y-40119047D01*
X114976190Y-40214285D01*
X114976190Y-40595238D01*
X115547619Y-39833333D02*
X115547619Y-39071428D01*
X115452381Y-38261904D02*
X114976190Y-38595238D01*
X115452381Y-38833333D02*
X114452381Y-38833333D01*
X114452381Y-38452380D01*
X114500000Y-38357142D01*
X114547619Y-38309523D01*
X114642857Y-38261904D01*
X114785714Y-38261904D01*
X114880952Y-38309523D01*
X114928571Y-38357142D01*
X114976190Y-38452380D01*
X114976190Y-38833333D01*
X115452381Y-37309523D02*
X115452381Y-37880952D01*
X115452381Y-37595238D02*
X114452381Y-37595238D01*
X114595238Y-37690476D01*
X114690476Y-37785714D01*
X114738095Y-37880952D01*
X117190476Y-35352381D02*
X117190476Y-34352381D01*
X117571429Y-34352381D01*
X117666667Y-34400000D01*
X117714286Y-34447619D01*
X117761905Y-34542857D01*
X117761905Y-34685714D01*
X117714286Y-34780952D01*
X117666667Y-34828571D01*
X117571429Y-34876190D01*
X117190476Y-34876190D01*
X118095238Y-34352381D02*
X118333333Y-35352381D01*
X118523810Y-34638095D01*
X118714286Y-35352381D01*
X118952381Y-34352381D01*
X119904762Y-35352381D02*
X119571428Y-34876190D01*
X119333333Y-35352381D02*
X119333333Y-34352381D01*
X119714286Y-34352381D01*
X119809524Y-34400000D01*
X119857143Y-34447619D01*
X119904762Y-34542857D01*
X119904762Y-34685714D01*
X119857143Y-34780952D01*
X119809524Y-34828571D01*
X119714286Y-34876190D01*
X119333333Y-34876190D01*
X120857143Y-35352381D02*
X120285714Y-35352381D01*
X120571428Y-35352381D02*
X120571428Y-34352381D01*
X120476190Y-34495238D01*
X120380952Y-34590476D01*
X120285714Y-34638095D01*
X127023809Y-48976190D02*
X127023809Y-49452381D01*
X126690476Y-48452381D02*
X127023809Y-48976190D01*
X127357143Y-48452381D01*
X128166667Y-49452381D02*
X127690476Y-49452381D01*
X127690476Y-48452381D01*
X128500000Y-49071429D02*
X129261905Y-49071429D01*
X130166667Y-48452381D02*
X129976190Y-48452381D01*
X129880952Y-48500000D01*
X129833333Y-48547619D01*
X129738095Y-48690476D01*
X129690476Y-48880952D01*
X129690476Y-49261905D01*
X129738095Y-49357143D01*
X129785714Y-49404762D01*
X129880952Y-49452381D01*
X130071429Y-49452381D01*
X130166667Y-49404762D01*
X130214286Y-49357143D01*
X130261905Y-49261905D01*
X130261905Y-49023810D01*
X130214286Y-48928571D01*
X130166667Y-48880952D01*
X130071429Y-48833333D01*
X129880952Y-48833333D01*
X129785714Y-48880952D01*
X129738095Y-48928571D01*
X129690476Y-49023810D01*
X130738095Y-49452381D02*
X130928571Y-49452381D01*
X131023810Y-49404762D01*
X131071429Y-49357143D01*
X131166667Y-49214286D01*
X131214286Y-49023810D01*
X131214286Y-48642857D01*
X131166667Y-48547619D01*
X131119048Y-48500000D01*
X131023810Y-48452381D01*
X130833333Y-48452381D01*
X130738095Y-48500000D01*
X130690476Y-48547619D01*
X130642857Y-48642857D01*
X130642857Y-48880952D01*
X130690476Y-48976190D01*
X130738095Y-49023810D01*
X130833333Y-49071429D01*
X131023810Y-49071429D01*
X131119048Y-49023810D01*
X131166667Y-48976190D01*
X131214286Y-48880952D01*
X116428571Y-61976190D02*
X116428571Y-62452381D01*
X116095238Y-61452381D02*
X116428571Y-61976190D01*
X116761905Y-61452381D01*
X117571429Y-62452381D02*
X117095238Y-62452381D01*
X117095238Y-61452381D01*
X117904762Y-62071429D02*
X118666667Y-62071429D01*
X119571429Y-61452381D02*
X119380952Y-61452381D01*
X119285714Y-61500000D01*
X119238095Y-61547619D01*
X119142857Y-61690476D01*
X119095238Y-61880952D01*
X119095238Y-62261905D01*
X119142857Y-62357143D01*
X119190476Y-62404762D01*
X119285714Y-62452381D01*
X119476191Y-62452381D01*
X119571429Y-62404762D01*
X119619048Y-62357143D01*
X119666667Y-62261905D01*
X119666667Y-62023810D01*
X119619048Y-61928571D01*
X119571429Y-61880952D01*
X119476191Y-61833333D01*
X119285714Y-61833333D01*
X119190476Y-61880952D01*
X119142857Y-61928571D01*
X119095238Y-62023810D01*
X120142857Y-62452381D02*
X120333333Y-62452381D01*
X120428572Y-62404762D01*
X120476191Y-62357143D01*
X120571429Y-62214286D01*
X120619048Y-62023810D01*
X120619048Y-61642857D01*
X120571429Y-61547619D01*
X120523810Y-61500000D01*
X120428572Y-61452381D01*
X120238095Y-61452381D01*
X120142857Y-61500000D01*
X120095238Y-61547619D01*
X120047619Y-61642857D01*
X120047619Y-61880952D01*
X120095238Y-61976190D01*
X120142857Y-62023810D01*
X120238095Y-62071429D01*
X120428572Y-62071429D01*
X120523810Y-62023810D01*
X120571429Y-61976190D01*
X120619048Y-61880952D01*
X121047619Y-62071429D02*
X121809524Y-62071429D01*
X122857143Y-62452381D02*
X122523809Y-61976190D01*
X122285714Y-62452381D02*
X122285714Y-61452381D01*
X122666667Y-61452381D01*
X122761905Y-61500000D01*
X122809524Y-61547619D01*
X122857143Y-61642857D01*
X122857143Y-61785714D01*
X122809524Y-61880952D01*
X122761905Y-61928571D01*
X122666667Y-61976190D01*
X122285714Y-61976190D01*
X123809524Y-62452381D02*
X123238095Y-62452381D01*
X123523809Y-62452381D02*
X123523809Y-61452381D01*
X123428571Y-61595238D01*
X123333333Y-61690476D01*
X123238095Y-61738095D01*
X116428571Y-55976190D02*
X116428571Y-56452381D01*
X116095238Y-55452381D02*
X116428571Y-55976190D01*
X116761905Y-55452381D01*
X117571429Y-56452381D02*
X117095238Y-56452381D01*
X117095238Y-55452381D01*
X117904762Y-56071429D02*
X118666667Y-56071429D01*
X119571429Y-55452381D02*
X119380952Y-55452381D01*
X119285714Y-55500000D01*
X119238095Y-55547619D01*
X119142857Y-55690476D01*
X119095238Y-55880952D01*
X119095238Y-56261905D01*
X119142857Y-56357143D01*
X119190476Y-56404762D01*
X119285714Y-56452381D01*
X119476191Y-56452381D01*
X119571429Y-56404762D01*
X119619048Y-56357143D01*
X119666667Y-56261905D01*
X119666667Y-56023810D01*
X119619048Y-55928571D01*
X119571429Y-55880952D01*
X119476191Y-55833333D01*
X119285714Y-55833333D01*
X119190476Y-55880952D01*
X119142857Y-55928571D01*
X119095238Y-56023810D01*
X120142857Y-56452381D02*
X120333333Y-56452381D01*
X120428572Y-56404762D01*
X120476191Y-56357143D01*
X120571429Y-56214286D01*
X120619048Y-56023810D01*
X120619048Y-55642857D01*
X120571429Y-55547619D01*
X120523810Y-55500000D01*
X120428572Y-55452381D01*
X120238095Y-55452381D01*
X120142857Y-55500000D01*
X120095238Y-55547619D01*
X120047619Y-55642857D01*
X120047619Y-55880952D01*
X120095238Y-55976190D01*
X120142857Y-56023810D01*
X120238095Y-56071429D01*
X120428572Y-56071429D01*
X120523810Y-56023810D01*
X120571429Y-55976190D01*
X120619048Y-55880952D01*
X121047619Y-56071429D02*
X121809524Y-56071429D01*
X122857143Y-56452381D02*
X122523809Y-55976190D01*
X122285714Y-56452381D02*
X122285714Y-55452381D01*
X122666667Y-55452381D01*
X122761905Y-55500000D01*
X122809524Y-55547619D01*
X122857143Y-55642857D01*
X122857143Y-55785714D01*
X122809524Y-55880952D01*
X122761905Y-55928571D01*
X122666667Y-55976190D01*
X122285714Y-55976190D01*
X123238095Y-55547619D02*
X123285714Y-55500000D01*
X123380952Y-55452381D01*
X123619048Y-55452381D01*
X123714286Y-55500000D01*
X123761905Y-55547619D01*
X123809524Y-55642857D01*
X123809524Y-55738095D01*
X123761905Y-55880952D01*
X123190476Y-56452381D01*
X123809524Y-56452381D01*
X122452381Y-45619048D02*
X121452381Y-45619048D01*
X121452381Y-45380953D01*
X121500000Y-45238095D01*
X121595238Y-45142857D01*
X121690476Y-45095238D01*
X121880952Y-45047619D01*
X122023810Y-45047619D01*
X122214286Y-45095238D01*
X122309524Y-45142857D01*
X122404762Y-45238095D01*
X122452381Y-45380953D01*
X122452381Y-45619048D01*
X122452381Y-44619048D02*
X121452381Y-44619048D01*
X121928571Y-44619048D02*
X121928571Y-44047619D01*
X122452381Y-44047619D02*
X121452381Y-44047619D01*
X122357143Y-43000000D02*
X122404762Y-43047619D01*
X122452381Y-43190476D01*
X122452381Y-43285714D01*
X122404762Y-43428572D01*
X122309524Y-43523810D01*
X122214286Y-43571429D01*
X122023810Y-43619048D01*
X121880952Y-43619048D01*
X121690476Y-43571429D01*
X121595238Y-43523810D01*
X121500000Y-43428572D01*
X121452381Y-43285714D01*
X121452381Y-43190476D01*
X121500000Y-43047619D01*
X121547619Y-43000000D01*
X122452381Y-42047619D02*
X122452381Y-42619048D01*
X122452381Y-42333334D02*
X121452381Y-42333334D01*
X121595238Y-42428572D01*
X121690476Y-42523810D01*
X121738095Y-42619048D01*
X122452381Y-41095238D02*
X122452381Y-41666667D01*
X122452381Y-41380953D02*
X121452381Y-41380953D01*
X121595238Y-41476191D01*
X121690476Y-41571429D01*
X121738095Y-41666667D01*
X122547619Y-40904762D02*
X122547619Y-40142857D01*
X122452381Y-39904762D02*
X121452381Y-39904762D01*
X121452381Y-39523809D01*
X121500000Y-39428571D01*
X121547619Y-39380952D01*
X121642857Y-39333333D01*
X121785714Y-39333333D01*
X121880952Y-39380952D01*
X121928571Y-39428571D01*
X121976190Y-39523809D01*
X121976190Y-39904762D01*
X121452381Y-38904762D02*
X122261905Y-38904762D01*
X122357143Y-38857143D01*
X122404762Y-38809524D01*
X122452381Y-38714286D01*
X122452381Y-38523809D01*
X122404762Y-38428571D01*
X122357143Y-38380952D01*
X122261905Y-38333333D01*
X121452381Y-38333333D01*
X122452381Y-37857143D02*
X121452381Y-37857143D01*
X121452381Y-37476190D01*
X121500000Y-37380952D01*
X121547619Y-37333333D01*
X121642857Y-37285714D01*
X121785714Y-37285714D01*
X121880952Y-37333333D01*
X121928571Y-37380952D01*
X121976190Y-37476190D01*
X121976190Y-37857143D01*
X122452381Y-36333333D02*
X122452381Y-36904762D01*
X122452381Y-36619048D02*
X121452381Y-36619048D01*
X121595238Y-36714286D01*
X121690476Y-36809524D01*
X121738095Y-36904762D01*
X102238095Y-57452381D02*
X102809524Y-57452381D01*
X102523809Y-58452381D02*
X102523809Y-57452381D01*
X103142857Y-58452381D02*
X103142857Y-57452381D01*
X103523810Y-57452381D01*
X103619048Y-57500000D01*
X103666667Y-57547619D01*
X103714286Y-57642857D01*
X103714286Y-57785714D01*
X103666667Y-57880952D01*
X103619048Y-57928571D01*
X103523810Y-57976190D01*
X103142857Y-57976190D01*
X104666667Y-57500000D02*
X104571429Y-57452381D01*
X104428572Y-57452381D01*
X104285714Y-57500000D01*
X104190476Y-57595238D01*
X104142857Y-57690476D01*
X104095238Y-57880952D01*
X104095238Y-58023810D01*
X104142857Y-58214286D01*
X104190476Y-58309524D01*
X104285714Y-58404762D01*
X104428572Y-58452381D01*
X104523810Y-58452381D01*
X104666667Y-58404762D01*
X104714286Y-58357143D01*
X104714286Y-58023810D01*
X104523810Y-58023810D01*
X105666667Y-58452381D02*
X105095238Y-58452381D01*
X105380952Y-58452381D02*
X105380952Y-57452381D01*
X105285714Y-57595238D01*
X105190476Y-57690476D01*
X105095238Y-57738095D01*
M02*
