M48
;DRILL file {KiCad 4.0.1-3.201512221402+6198~38~ubuntu14.04.1-stable} date Sat 30 Apr 2016 09:50:37 AM EDT
;FORMAT={-:-/ absolute / inch / decimal}
FMAT,2
INCH,TZ
T1C0.039
T2C0.040
T3C0.050
%
G90
G05
M72
T1
X4.3702Y-1.9685
X4.4093Y-1.7717
X4.5213Y-2.126
X4.5213Y-2.3622
X4.5276Y-1.3717
X4.5276Y-1.7717
X4.8819Y-1.5158
X4.8819Y-1.7127
X4.9213Y-2.126
X4.9213Y-2.3622
T2
X4.0945Y-1.4173
X4.0945Y-1.5173
X4.0945Y-1.811
X4.0945Y-1.9685
X4.0945Y-2.4016
X4.6063Y-1.9685
X4.685Y-1.5748
X4.685Y-1.6748
X4.8819Y-1.9685
X5.0787Y-1.4173
X5.0787Y-1.5173
X5.0787Y-1.6173
X5.0787Y-1.7173
X5.0787Y-2.0472
X5.0787Y-2.1472
X5.0787Y-2.2472
X5.0787Y-2.3472
T3
X4.3702Y-2.3685
X4.4093Y-1.3717
T0
M30
